<svg id="visual" viewBox="0 0 1920 300" width="1920" height="300" xmlns="http://www.w3.org/2000/svg" xmlns:xlink="http://www.w3.org/1999/xlink" version="1.1"><path d="M0 192L45.7 187C91.3 182 182.7 172 274.2 162.2C365.7 152.3 457.3 142.7 548.8 139.8C640.3 137 731.7 141 823 141.2C914.3 141.3 1005.7 137.7 1097 141.8C1188.3 146 1279.7 158 1371.2 160.2C1462.7 162.3 1554.3 154.7 1645.8 151.2C1737.3 147.7 1828.7 148.3 1874.3 148.7L1920 149L1920 301L1874.3 301C1828.7 301 1737.3 301 1645.8 301C1554.3 301 1462.7 301 1371.2 301C1279.7 301 1188.3 301 1097 301C1005.7 301 914.3 301 823 301C731.7 301 640.3 301 548.8 301C457.3 301 365.7 301 274.2 301C182.7 301 91.3 301 45.7 301L0 301Z" fill="#88b3f4"></path><path d="M0 177L45.7 179.5C91.3 182 182.7 187 274.2 183.3C365.7 179.7 457.3 167.3 548.8 163.2C640.3 159 731.7 163 823 162.7C914.3 162.3 1005.7 157.7 1097 158.3C1188.3 159 1279.7 165 1371.2 171.3C1462.7 177.7 1554.3 184.3 1645.8 184C1737.3 183.7 1828.7 176.3 1874.3 172.7L1920 169L1920 301L1874.3 301C1828.7 301 1737.3 301 1645.8 301C1554.3 301 1462.7 301 1371.2 301C1279.7 301 1188.3 301 1097 301C1005.7 301 914.3 301 823 301C731.7 301 640.3 301 548.8 301C457.3 301 365.7 301 274.2 301C182.7 301 91.3 301 45.7 301L0 301Z" fill="#79aaf7"></path><path d="M0 220L45.7 217.8C91.3 215.7 182.7 211.3 274.2 207.3C365.7 203.3 457.3 199.7 548.8 194.8C640.3 190 731.7 184 823 185C914.3 186 1005.7 194 1097 202.3C1188.3 210.7 1279.7 219.3 1371.2 222.7C1462.7 226 1554.3 224 1645.8 223.2C1737.3 222.3 1828.7 222.7 1874.3 222.8L1920 223L1920 301L1874.3 301C1828.7 301 1737.3 301 1645.8 301C1554.3 301 1462.7 301 1371.2 301C1279.7 301 1188.3 301 1097 301C1005.7 301 914.3 301 823 301C731.7 301 640.3 301 548.8 301C457.3 301 365.7 301 274.2 301C182.7 301 91.3 301 45.7 301L0 301Z" fill="#69a1fa"></path><path d="M0 211L45.7 210.2C91.3 209.3 182.7 207.7 274.2 208.5C365.7 209.3 457.3 212.7 548.8 216.3C640.3 220 731.7 224 823 229.8C914.3 235.7 1005.7 243.3 1097 244.5C1188.3 245.7 1279.7 240.3 1371.2 236.8C1462.7 233.3 1554.3 231.7 1645.8 226.3C1737.3 221 1828.7 212 1874.3 207.5L1920 203L1920 301L1874.3 301C1828.7 301 1737.3 301 1645.8 301C1554.3 301 1462.7 301 1371.2 301C1279.7 301 1188.3 301 1097 301C1005.7 301 914.3 301 823 301C731.7 301 640.3 301 548.8 301C457.3 301 365.7 301 274.2 301C182.7 301 91.3 301 45.7 301L0 301Z" fill="#5998fc"></path><path d="M0 260L45.7 258.3C91.3 256.7 182.7 253.3 274.2 253.5C365.7 253.7 457.3 257.3 548.8 261.3C640.3 265.3 731.7 269.7 823 266C914.3 262.3 1005.7 250.7 1097 250.3C1188.3 250 1279.7 261 1371.2 261C1462.7 261 1554.3 250 1645.8 243.8C1737.3 237.7 1828.7 236.3 1874.3 235.7L1920 235L1920 301L1874.3 301C1828.7 301 1737.3 301 1645.8 301C1554.3 301 1462.7 301 1371.2 301C1279.7 301 1188.3 301 1097 301C1005.7 301 914.3 301 823 301C731.7 301 640.3 301 548.8 301C457.3 301 365.7 301 274.2 301C182.7 301 91.3 301 45.7 301L0 301Z" fill="#488ffe"></path><path d="M0 258L45.7 263.7C91.3 269.3 182.7 280.7 274.2 286.7C365.7 292.7 457.3 293.3 548.8 286.3C640.3 279.3 731.7 264.7 823 260.2C914.3 255.7 1005.7 261.3 1097 268.5C1188.3 275.7 1279.7 284.3 1371.2 288.5C1462.7 292.7 1554.3 292.3 1645.8 288.8C1737.3 285.3 1828.7 278.7 1874.3 275.3L1920 272L1920 301L1874.3 301C1828.7 301 1737.3 301 1645.8 301C1554.3 301 1462.7 301 1371.2 301C1279.7 301 1188.3 301 1097 301C1005.7 301 914.3 301 823 301C731.7 301 640.3 301 548.8 301C457.3 301 365.7 301 274.2 301C182.7 301 91.3 301 45.7 301L0 301Z" fill="#3586ff"></path></svg>